<?xml version="1.0" encoding="UTF-8"?>
<svg id="Ebene_1" data-name="Ebene 1" xmlns="http://www.w3.org/2000/svg" viewBox="0 0 1024 1024">
  <defs>
    <style>
      .cls-1 {
        fill: #b8860b;
        font-family: Outfit-Bold, Outfit;
        font-size: 159.81px;
        font-variation-settings: 'wght' 700;
        font-weight: 700;
      }

      .cls-2 {
        fill: #fff;
      }

      .cls-3 {
        letter-spacing: -.03em;
      }

      .cls-4 {
        letter-spacing: -.03em;
      }
    </style>
  </defs>
  <g>
    <path class="cls-2" d="M582.06,441.06l-11,71.5-56.06-3.56,22-234.01c4.48.17,9.03-.23,13.51,0,14.67.73,30.22,3.07,44.88,5.12,54.56,7.63,108.28,12.61,103.62,82.4-2.53,37.87-21.86,76.97-63.61,80.39-17.34,1.42-36.07-.34-53.34-1.84ZM585.99,389c11.69.32,26.35,6,37.39.89,12.33-5.71,16.05-28.07,14.36-40.13-2.49-17.75-30.21-16.77-43.75-18.76l-8.01,58Z"/>
    <path class="cls-2" d="M254.99,475l22.93,71.92-52.92,19.08-80.98-217.96c29.65-9.51,58.22-22.79,88.2-31.31,52.83-15.02,86.86.93,100.49,55.05,11.39,45.23-3.88,74.81-45.74,92.7-10.03,4.29-21.38,8.37-31.98,10.53ZM238,428c14.17-5.67,36.33-7.64,37.99-26.49.99-11.23-6.45-35.07-18.93-38.07-10.37-2.49-26.67,6.35-37.04,8.6l17.98,55.96Z"/>
    <path class="cls-2" d="M494.99,275l-5.93,55.56-73.51,5.49c-1.95.38-4.43,1.16-4.6,3.45l3.05,31.5,65.01-5.01,2,53.01-61.06,3.44c-2.27,1.5-.08,5.84.07,8.05.61,9.28.79,18.74,1.98,28.02.1.8.22,1.57.95,2.05,3.56,1.63,7.27-.42,10.55-.57,10.98-.51,22.19-.27,33-2l28.51-.99,4.56,52.07c-1.19,1.77-11.2.75-14.07.92-30.47,1.84-62.45,5.19-92.89,9.11-7.19.93-14.39,2.78-21.61,3.46l-28.91-231.98c.45-2.3,5.37-1.4,7.33-1.67,37.37-5.14,74.65-9.51,112.09-11.91,11.13-.71,22.53-.33,33.5-1.99Z"/>
    <path class="cls-2" d="M785.04,379.03l-9.61,30,59.52,21.57-16.02,48.33-59.47-19.72c-.9.08-1.24,1.42-1.54,2.22-3.86,10.3-6.08,22.54-9.86,32.96l1.62,1.44,65.25,23.25c.43,1.65-.19,3.18-.62,4.74-3.19,11.4-9.42,26.82-13.83,38.17-.63,1.62-2.7,7.71-3.94,7.82l-121.54-39.8,66.95-222.56,1.68-1.25c38.33,11.49,76.23,24.84,113.64,39.06,6.74,2.56,13.64,4.98,20.31,7.69.95.39,1.92.58,2.41,1.63l-25.61,48.33-69.33-23.86Z"/>
  </g>
  <text class="cls-1" transform="translate(220.42 708)"><tspan x="0" y="0">SH</tspan><tspan class="cls-3" x="209.83" y="0">O</tspan><tspan class="cls-4" x="334.49" y="0">W</tspan><tspan x="489.99" y="0">S</tspan></text>
</svg>